# xmcd CD database file
#
# Track frame offsets:
#	150
#	33311
#	53235
#	74548
#	91978
#	115766
#	140315
#	155266
#	178522
#
# Disc length: 2889 seconds
#
# Revision: 1
# Processed by: cddbd v1.5.1PL0 Copyright (c) Steve Scherf et al.
# Submitted via: CDex 1.51
#
DISCID=710b4709
DTITLE=Plunge - Plunge
DYEAR=2004
DGENRE=Jazz
TTITLE0=Exhibit A
TTITLE1=Can-can
TTITLE2=Credo
TTITLE3=Plums
TTITLE4=Ebonology
TTITLE5=Solace
TTITLE6=Well done, dear
TTITLE7=Bommen
TTITLE8=Now what?
EXTD=YEAR: 2004
EXTT0=
EXTT1=
EXTT2=
EXTT3=
EXTT4=
EXTT5=
EXTT6=
EXTT7=
EXTT8=
PLAYORDER=
